<?xml version="1.0" encoding="UTF-8"?>
<svg version="1.1" xmlns="http://www.w3.org/2000/svg" width="1526" height="1590">
<path d="M0 0 C28.68471937 26.59312525 36.49303548 67.20192848 37.95654297 104.70117188 C38.36282351 116.50189556 37.97584118 128.18794078 37.234375 139.97265625 C37.17058057 140.99290925 37.17058057 140.99290925 37.10549736 142.03377342 C36.08254611 158.24648714 34.68794701 174.42633934 33.28965664 190.61017036 C30.9815386 217.32484315 28.69093141 244.0363954 27.15625 270.80859375 C27.07336227 272.23360703 27.07336227 272.23360703 26.98880005 273.68740845 C26.62265719 280.08006668 26.30897421 286.47400775 26.03125 292.87109375 C25.98499481 293.92776245 25.93873962 294.98443115 25.89108276 296.07312012 C25.03390086 316.30005696 24.82816473 336.50498679 24.84375 356.74609375 C24.84401688 357.52823116 24.84428375 358.31036858 24.84455872 359.11620712 C24.87643312 433.88226942 30.89952213 508.08803991 43.03125 581.87109375 C43.17304687 582.73389954 43.31484375 583.59670532 43.4609375 584.48565674 C51.83061119 635.15293915 63.81366319 685.13432081 80.03125 733.87109375 C80.40040527 734.98129883 80.76956055 736.09150391 81.14990234 737.23535156 C93.96652499 775.24984796 110.31680374 813.05739183 132.03125 846.87109375 C132.4015332 847.45149414 132.77181641 848.03189453 133.15332031 848.62988281 C135.37589527 852.09393357 137.67926072 855.49387837 140.03125 858.87109375 C140.40427246 859.40863281 140.77729492 859.94617187 141.16162109 860.5 C156.71348952 882.83871653 174.37841328 903.24073347 193.53125 922.55859375 C194.39733887 923.43773437 195.26342773 924.316875 196.15576172 925.22265625 C202.13468148 931.20945338 208.4280341 936.58941439 215.03125 941.87109375 C219.21311707 945.36284233 223.3251369 948.9370373 227.44335938 952.50341797 C228.83324417 953.70054814 230.23591739 954.88279795 231.640625 956.0625 C242.10939559 964.99705421 251.83879132 976.87938176 253.25244141 991.09545898 C254.13006965 1009.27730191 250.4344491 1025.66686675 238.02124023 1039.64233398 C235.74182279 1042.1034187 233.3894287 1044.48529363 231.03125 1046.87109375 C230.09732422 1047.91330078 230.09732422 1047.91330078 229.14453125 1048.9765625 C218.01209876 1061.10966308 202.49852681 1069.3966965 188.03125 1076.87109375 C187.30276855 1077.25362305 186.57428711 1077.63615234 185.82373047 1078.03027344 C138.89560601 1102.43581101 82.53384253 1108.28452466 31.85107422 1092.80273438 C-21.33700116 1075.22994687 -54.45985507 1033.14081475 -78.96875 984.87109375 C-88.01808782 966.62186954 -95.86783773 947.955425 -102.96875 928.87109375 C-103.20102295 928.25075256 -103.4332959 927.63041138 -103.67260742 926.99127197 C-130.78831068 854.53787118 -149.40070141 778.021157 -155.96875 700.87109375 C-157.09467245 701.84919957 -158.21940233 702.8286781 -159.34375 703.80859375 C-160.08496094 704.453125 -160.82617188 705.09765625 -161.58984375 705.76171875 C-163.1248141 707.12277621 -164.63976308 708.50691808 -166.12890625 709.91796875 C-193.41967147 735.57035184 -224.18642746 743.89623443 -260.96875 742.87109375 C-268.75254097 742.49526214 -276.51641148 741.82419 -284.28125 741.17578125 C-286.52129518 740.99388603 -288.76136751 740.81232484 -291.00146484 740.631073 C-316.00580102 738.59139167 -340.98928444 736.3178688 -365.96875 733.99609375 C-368.50613335 733.76085691 -371.0435174 733.52562756 -373.5809021 733.29040527 C-446.45459482 726.52592343 -519.29068173 719.31666378 -707.96875 698.87109375 C-708.1030756 699.61682679 -708.2374012 700.36255983 -708.37579727 701.13089085 C-708.55360607 702.11423877 -708.73141487 703.09758669 -708.91461182 704.11073303 C-709.17797522 705.56964509 -709.17797522 705.56964509 -709.44665909 707.05803013 C-710.12628822 710.71992109 -710.90080903 714.35560434 -711.703125 717.9921875 C-712.03088846 719.5006803 -712.35800932 721.00931284 -712.68457031 722.51806641 C-712.93768982 723.68731659 -712.93768982 723.68731659 -713.19592285 724.88018799 C-718.77098952 750.77502541 -723.3468252 776.72716064 -726.28125 803.05859375 C-726.36274292 803.7866925 -726.44423584 804.51479126 -726.52819824 805.26495361 C-728.72423681 825.17498526 -729.13460204 844.91013648 -729.0969162 864.93165207 C-729.09372213 867.01426291 -729.09302558 869.09686074 -729.09307861 871.17947388 C-729.09704044 895.93962072 -729.09704044 895.93962072 -728.14892578 920.67822266 C-727.15025701 940.5987091 -732.44290032 958.23709822 -745.53125 973.49609375 C-774.1264511 1003.46937684 -822.91155088 1014.48466528 -862.85180664 1015.97895813 C-865.88198269 1016.03442344 -868.91074716 1016.06186801 -871.94140625 1016.07421875 C-873.06276474 1016.07991882 -874.18412323 1016.0856189 -875.33946228 1016.0914917 C-877.70684891 1016.10088703 -880.07424829 1016.10745375 -882.44165039 1016.11132812 C-885.96981371 1016.12092661 -889.49736616 1016.15195892 -893.02539062 1016.18359375 C-920.77931789 1016.31243013 -955.67446534 1015.9804806 -977.96875 996.87109375 C-986.81442424 987.72039626 -989.3240404 976.08304468 -989.27246094 963.69824219 C-988.57646065 932.65117067 -973.95514449 901.7957383 -962.3371582 873.53320312 C-951.23842243 846.50332927 -941.36865187 819.15646526 -933.96875 790.87109375 C-933.59169922 789.45038574 -933.59169922 789.45038574 -933.20703125 788.00097656 C-927.80639924 767.04621219 -926.72489654 743.22280695 -937.18359375 723.71875 C-943.99204672 712.85800116 -953.79109192 706.03826078 -964.53125 699.43359375 C-974.92849699 692.86847493 -983.95277903 684.80981482 -987.40625 672.62109375 C-992.30826847 643.36217103 -971.87927946 610.86135363 -956.05664062 588.07128906 C-954.07839183 585.29823661 -952.03598228 582.57820295 -949.96875 579.87109375 C-949.31592041 579.00629395 -949.31592041 579.00629395 -948.64990234 578.12402344 C-932.10885473 556.27960288 -912.10825968 533.60295463 -884.28125 527.30859375 C-883.36625732 527.09807373 -882.45126465 526.88755371 -881.50854492 526.6706543 C-867.4904995 523.54740066 -853.39635615 521.89692665 -839.09375 520.74609375 C-838.00328369 520.64723877 -836.91281738 520.54838379 -835.78930664 520.4465332 C-830.3127235 519.99680861 -825.1653291 519.8577312 -819.6953125 520.44140625 C-811.11474564 521.21813949 -811.11474564 521.21813949 -802.96875 518.87109375 C-797.45979438 513.19364101 -794.55772385 505.61485531 -791.4730835 498.44242859 C-788.57861268 491.76849821 -784.88229075 485.63654355 -781.09375 479.43359375 C-779.74203047 477.17925967 -778.39177614 474.92404642 -777.04296875 472.66796875 C-776.37056152 471.54841797 -775.6981543 470.42886719 -775.00537109 469.27539062 C-772.96380427 465.86282676 -770.94160433 462.43954469 -768.92578125 459.01171875 C-760.73922494 445.09536745 -752.36875984 431.31526691 -743.73632812 417.67089844 C-742.08046233 415.04804361 -740.4370449 412.41784449 -738.796875 409.78515625 C-731.23348261 397.70422038 -723.31975853 385.8694431 -715.34375 374.05859375 C-714.82049133 373.28303131 -714.29723267 372.50746887 -713.75811768 371.70840454 C-704.26153267 357.64563087 -694.54774763 343.73929934 -684.59375 329.99609375 C-684.06539551 329.26616211 -683.53704102 328.53623047 -682.99267578 327.78417969 C-681.32061753 325.47792627 -679.64548389 323.17394979 -677.96875 320.87109375 C-677.38802734 320.07348633 -676.80730469 319.27587891 -676.20898438 318.45410156 C-669.07959129 308.67943093 -661.8419755 299.01715568 -654.30419922 289.55371094 C-652.4400588 287.20496217 -650.59501349 284.84145469 -648.74829102 282.47900391 C-644.27791984 276.76457498 -639.74949668 271.10455344 -635.13671875 265.50390625 C-633.69560627 263.75379849 -632.26065597 261.99859763 -630.83203125 260.23828125 C-625.18029096 253.27761008 -619.37015088 246.46477383 -613.51708984 239.67382812 C-611.99034309 237.89623462 -610.47233292 236.1115736 -608.95703125 234.32421875 C-603.51616231 227.9164591 -597.98698787 221.62027644 -592.24023438 215.48413086 C-589.68710849 212.75500494 -587.19058613 209.98986472 -584.7434082 207.16503906 C-581.14089649 203.04148481 -577.44247828 199.01993728 -573.6875 195.03515625 C-573.0025647 194.30817535 -572.31762939 193.58119446 -571.61193848 192.83218384 C-564.14979185 184.9511875 -556.50476271 177.25585371 -548.8203125 169.59228516 C-546.43891511 167.216327 -544.06301757 164.83496044 -541.6875 162.453125 C-540.14615441 160.91243913 -538.60449924 159.37206291 -537.0625 157.83203125 C-536.3665271 157.13403412 -535.6705542 156.43603699 -534.95349121 155.71688843 C-531.02469202 151.80661461 -526.99949628 148.06810341 -522.79316711 144.45739746 C-519.65895125 141.7322431 -516.67010556 138.85273954 -513.65625 135.99609375 C-508.43273498 131.07942367 -503.1164581 126.4241367 -497.51171875 121.9453125 C-494.91863653 119.83021779 -492.440901 117.62591279 -489.96875 115.37109375 C-480.40976925 106.68384395 -470.165918 98.78956499 -459.96875 90.87109375 C-458.98213379 90.10490723 -458.98213379 90.10490723 -457.97558594 89.32324219 C-441.42725563 76.50322305 -424.52606899 64.27523494 -406.96875 52.87109375 C-406.2257666 52.38817871 -405.4827832 51.90526367 -404.71728516 51.40771484 C-382.20242244 36.84041871 -358.9191999 23.89342246 -334.96875 11.87109375 C-334.09444336 11.42926758 -333.22013672 10.98744141 -332.31933594 10.53222656 C-284.14786573 -13.66321582 -230.51447993 -29.36125794 -176.96875 -35.12890625 C-176.04046387 -35.23187012 -175.11217773 -35.33483398 -174.15576172 -35.44091797 C-116.39603805 -41.57649526 -45.73557335 -40.79042765 0 0 Z M-406.34375 58.99609375 C-406.96842163 59.41175598 -407.59309326 59.82741821 -408.23669434 60.25567627 C-421.44178222 69.06095385 -434.33284265 78.26581686 -446.96875 87.87109375 C-447.98324219 88.639375 -448.99773438 89.40765625 -450.04296875 90.19921875 C-462.78719716 99.91806452 -475.17199559 110.08066409 -487.35351562 120.49414062 C-489.01709543 121.91230721 -490.68770876 123.32184692 -492.359375 124.73046875 C-499.29950963 130.60048696 -506.04266345 136.63838285 -512.64404297 142.88793945 C-515.64443844 145.72507934 -518.67578366 148.49676205 -521.80859375 151.1875 C-526.65207028 155.39660038 -531.14405676 159.93760334 -535.65625 164.49609375 C-536.48447266 165.32882812 -537.31269531 166.1615625 -538.16601562 167.01953125 C-539.70650235 168.56865161 -541.24594928 170.11880729 -542.78393555 171.67041016 C-546.56309923 175.47702335 -550.36158195 179.26399831 -554.16732788 183.04402161 C-556.32765064 185.19076524 -558.48514088 187.3403472 -560.64257812 189.48999023 C-561.7722092 190.61459569 -562.9027366 191.73830157 -564.03417969 192.86108398 C-569.68312167 198.46807838 -575.28893065 204.05056809 -580.45654297 210.11157227 C-582.98915194 213.0583777 -585.67792437 215.85781042 -588.34375 218.68359375 C-593.04704762 223.70452715 -597.4905934 228.85449237 -601.79296875 234.2265625 C-604.099067 237.02948623 -606.51026531 239.7011265 -608.96875 242.37109375 C-613.38756919 247.18299808 -617.54108762 252.15379008 -621.640625 257.23828125 C-623.14306738 259.08540159 -624.66391863 260.9163722 -626.1875 262.74609375 C-633.29533094 271.29204623 -640.17975066 279.96744234 -646.890625 288.828125 C-649.6799767 292.50760294 -652.53403996 296.13120698 -655.40625 299.74609375 C-662.1587667 308.28164086 -668.5615992 317.07510843 -674.96875 325.87109375 C-675.51821289 326.62438965 -676.06767578 327.37768555 -676.63378906 328.15380859 C-680.4376706 333.37471035 -684.21242365 338.6158871 -687.96875 343.87109375 C-688.47744629 344.58120605 -688.98614258 345.29131836 -689.51025391 346.02294922 C-707.14744515 370.71501696 -723.91236606 396.12525104 -739.96875 421.87109375 C-740.50999512 422.73653809 -741.05124023 423.60198242 -741.60888672 424.49365234 C-757.99540109 450.7207074 -773.67993753 477.36046697 -788.8359375 504.31640625 C-789.34874268 505.1863623 -789.86154785 506.05631836 -790.38989258 506.95263672 C-791.59879613 509.1872483 -792.54111781 511.25758665 -793.4597168 513.60595703 C-797.33158775 522.78662665 -797.33158775 522.78662665 -801.83813477 524.63983154 C-806.62308479 525.69855776 -811.44497125 525.65606689 -816.3241272 525.55239868 C-820.00163213 525.47591096 -823.67123304 525.55248988 -827.34843445 525.62123108 C-829.21087303 525.65501144 -831.07346202 525.68132023 -832.93611145 525.70018005 C-865.03196165 526.08117607 -896.06779873 531.44305016 -919.96875 553.87109375 C-920.5344873 554.39445313 -921.10022461 554.9178125 -921.68310547 555.45703125 C-931.28399454 564.4125049 -939.29988337 574.2368278 -946.96875 584.87109375 C-947.39526855 585.45777832 -947.82178711 586.04446289 -948.26123047 586.64892578 C-954.35907335 595.07705994 -959.78834728 603.86068542 -964.96875 612.87109375 C-965.31824707 613.47147461 -965.66774414 614.07185547 -966.02783203 614.69042969 C-974.78070031 629.84231544 -985.88357019 651.77530814 -982.59375 669.80078125 C-978.88334928 682.09148362 -970.6420258 689.54823022 -959.93359375 696.06640625 C-947.73590242 703.49108793 -938.30849668 710.78370112 -931.65625 723.68359375 C-931.33035889 724.31080322 -931.00446777 724.9380127 -930.66870117 725.58422852 C-915.44744607 756.91791291 -928.75562098 795.14723085 -938.96875 825.87109375 C-939.51837402 827.53640137 -939.51837402 827.53640137 -940.07910156 829.23535156 C-946.53574725 848.6866505 -953.92412129 867.77175262 -961.796875 886.69140625 C-982.95430117 933.47791886 -982.95430117 933.47791886 -980.96875 982.87109375 C-974.51632666 995.24801489 -964.44947791 1000.71439399 -951.484375 1005.03125 C-947.33485173 1006.18243631 -943.20090361 1007.08690829 -938.96875 1007.87109375 C-938.17194824 1008.0220752 -937.37514648 1008.17305664 -936.55419922 1008.32861328 C-920.12956219 1011.23482411 -903.53117064 1011.18753239 -886.90625 1011.24609375 C-885.81389038 1011.25394897 -884.72153076 1011.2618042 -883.59606934 1011.26989746 C-838.53333591 1011.52153136 -785.18041894 1003.6313816 -751.03125 971.43359375 C-738.55718528 958.24209673 -732.74213866 942.06606394 -733.01020813 924.09120178 C-733.12664314 920.98543101 -733.26895101 917.88171918 -733.41796875 914.77734375 C-734.01862129 900.52745434 -734.15644682 886.28883215 -734.15405273 872.02856445 C-734.1539714 869.30030704 -734.16095487 866.57221732 -734.17456055 863.84399414 C-734.29678211 838.86712559 -733.10970727 814.08662425 -729.84375 789.30859375 C-729.74092712 788.51446075 -729.63810425 787.72032776 -729.53216553 786.90213013 C-725.63169309 757.05492542 -719.79719884 727.47615149 -712.484375 698.28320312 C-711.86422881 695.79324131 -711.86422881 695.79324131 -711.96875 692.87109375 C-711.40894629 692.94679407 -710.84914257 693.02249439 -710.27237511 693.10048866 C-694.47823901 695.22518892 -678.66456693 697.06308444 -662.8203125 698.76953125 C-660.29486345 699.04319789 -657.76942743 699.31698483 -655.2440033 699.59088135 C-647.73986279 700.40348546 -640.23516875 701.21087693 -632.73029184 702.01664829 C-630.5827957 702.24727014 -628.43532156 702.4780959 -626.28785324 702.70897675 C-550.44962331 710.86153979 -474.5816496 718.73969344 -360.97249746 729.30092525 C-358.86352105 729.49428109 -356.75456684 729.68787729 -354.64561844 729.88153839 C-316.95484354 733.34749503 -316.95484354 733.34749503 -279.23779678 736.51136398 C-277.65316546 736.6379847 -276.06868713 736.76654137 -274.4844017 736.89741898 C-260.82904688 738.01815773 -246.99200863 738.67653078 -233.34375 737.12109375 C-232.55508545 737.03166504 -231.7664209 736.94223633 -230.95385742 736.85009766 C-199.9647701 733.01517073 -175.94298251 713.62083512 -154.859375 691.734375 C-152.96875 689.87109375 -152.96875 689.87109375 -150.96875 688.87109375 C-150.94296875 689.99257812 -150.9171875 691.1140625 -150.890625 692.26953125 C-148.31740578 774.62975838 -124.50453747 859.90788937 -22.52270508 1055.22558594 C11.17766498 1086.75796689 56.56886823 1097.20576114 101.52246094 1096.01904297 C144.10539137 1094.22352002 188.72650497 1076.70459379 221.03125 1048.87109375 C221.85882812 1048.18789062 222.68640625 1047.5046875 223.5390625 1046.80078125 C235.53126006 1036.56890627 246.3954677 1021.97611399 248.2668457 1005.83959961 C249.21106932 990.97871079 246.38264588 979.78306172 236.34765625 968.359375 C235.58324219 967.53824219 234.81882812 966.71710937 234.03125 965.87109375 C233.38027344 965.16339844 232.72929688 964.45570313 232.05859375 963.7265625 C227.69039017 959.17896657 222.90838696 955.22279906 218.00390625 951.26953125 C200.18864698 936.89559013 182.85769884 921.35394801 168.03125 903.87109375 C167.185625 902.91460938 166.34 901.958125 165.46875 900.97265625 C129.8073647 860.46934181 104.55686966 812.86776482 85.03125 762.87109375 C84.78159485 762.2336322 84.5319397 761.59617065 84.27471924 760.93939209 C50.50611 674.51531521 34.54674816 581.02566249 22.34375 446.05859375 C22.28281158 445.09858459 22.22187317 444.13857544 22.15908813 443.1494751 C20.4088429 415.164219 19.82283774 387.21523174 19.84375 359.18359375 C19.84401688 358.37728767 19.84428375 357.5709816 19.84455872 356.740242 C19.86663407 303.38097326 23.09220948 250.39793546 27.58984375 197.23828125 C27.65699459 196.44449947 27.72414543 195.6507177 27.79333115 194.83288193 C28.45893898 186.97488046 29.130134 179.11740499 29.8174715 171.26127243 C37.27132361 87.59970819 37.27132361 87.59970819 4.51953125 12.76171875 C-22.71550762 -18.87710191 -63.96543193 -28.6967955 -104.01953125 -31.6953125 C-112.77277951 -32.24322068 -121.5128236 -32.32929273 -130.28125 -32.31640625 C-131.11256439 -32.31546967 -131.94387878 -32.31453308 -132.80038452 -32.31356812 C-230.28492746 -32.07709369 -323.90024407 4.20144349 -406.34375 58.99609375 Z " fill="#000000" transform="translate(1150.96875,370.12890625)"/>
<path d="M0 0 C24.86523419 -0.60300853 52.96479757 2.20682802 71.88671875 19.703125 C86.76680987 35.22525051 84.66537315 61.31822708 84.29065323 81.05876541 C84.02593209 91.86992382 83.01467931 102.6433754 82.05335593 113.41017413 C81.74407531 116.91213976 81.45125215 120.41548736 81.1566925 123.91871643 C80.46992503 132.056749 79.76451213 140.19310863 79.05693054 148.32935333 C77.98095926 160.7156556 76.91957539 173.10319826 75.875 185.4921875 C75.81479597 186.20527053 75.75459193 186.91835357 75.69256353 187.65304518 C73.26556038 216.44676398 71.47481781 245.25310997 70.17578125 274.12109375 C70.10709923 275.6052368 70.0383778 277.08937802 69.96960449 278.57351685 C68.90016887 302.43609767 68.86084782 326.33737919 68.64355469 350.21942139 C68.59244083 355.75177515 68.53723429 361.28408812 68.48242188 366.81640625 C68.37631236 377.58460022 68.27456956 388.35283029 68.17578125 399.12109375 C61.65301095 398.60135633 55.13039004 398.07979783 48.60791016 397.556427 C46.00067765 397.34733436 43.39341794 397.1385807 40.78613281 396.93014526 C21.22476924 395.36582319 1.66856485 393.74570653 -17.8849926 392.08662796 C-108.57132408 384.39611194 -199.26242392 378.54044577 -326.09375 371.85546875 C-326.84820026 371.81619027 -327.60265053 371.77691178 -328.37996292 371.73644304 C-343.30471236 370.95970849 -358.22958537 370.18799827 -373.15771484 369.47851562 C-374.14300895 369.43152149 -375.12830305 369.38452736 -376.14345455 369.33610916 C-380.50272204 369.12881914 -384.8620932 368.92505319 -389.22187805 368.72894287 C-390.68527473 368.66082066 -392.14866908 368.59264822 -393.61206055 368.52441406 C-395.43654976 368.44238739 -395.43654976 368.44238739 -397.29789734 368.35870361 C-401.17290406 368.09759871 -404.9753284 367.63597134 -408.82421875 367.12109375 C-407.56458964 363.06931156 -406.06785387 359.42602375 -404.05859375 355.69140625 C-403.50574707 354.66152588 -402.95290039 353.63164551 -402.38330078 352.57055664 C-401.78630371 351.47348389 -401.18930664 350.37641113 -400.57421875 349.24609375 C-399.95015137 348.09423584 -399.32608398 346.94237793 -398.68310547 345.75561523 C-392.89625834 335.11644118 -386.83337463 324.64555334 -380.66015625 314.2265625 C-378.74615601 310.98905146 -376.84684454 307.74322633 -374.94921875 304.49609375 C-362.50603342 283.26373494 -349.41659115 262.48590916 -335.34033203 242.29589844 C-333.85917316 240.17123447 -332.3864689 238.04089103 -330.9140625 235.91015625 C-311.53870409 208.02440108 -290.33869218 180.82730718 -267.30859375 155.8515625 C-265.34275461 153.69099401 -263.41532842 151.50948281 -261.5 149.3046875 C-257.84397149 145.11505784 -254.0767015 141.04099734 -250.26171875 136.99609375 C-249.57207031 136.26471191 -248.88242187 135.53333008 -248.171875 134.77978516 C-230.92057944 116.56086885 -230.92057944 116.56086885 -222 109.015625 C-219.55833933 106.88958295 -217.20375076 104.68391215 -214.84448242 102.46728516 C-209.32796422 97.28659335 -203.75373456 92.27625844 -197.83984375 87.546875 C-195.53497368 85.69282796 -193.2597761 83.81731064 -190.99609375 81.9140625 C-136.6535926 36.3352464 -71.73957172 3.07597057 0 0 Z M-162.82421875 67.12109375 C-163.88640625 67.8996875 -164.94859375 68.67828125 -166.04296875 69.48046875 C-168.99086728 71.66811977 -171.9126796 73.88530971 -174.82421875 76.12109375 C-175.36079102 76.53149902 -175.89736328 76.9419043 -176.45019531 77.36474609 C-189.6053233 87.45287162 -202.0202791 98.33849002 -214.16918945 109.60961914 C-215.40990724 110.74271898 -216.66320174 111.86207337 -217.92260742 112.97436523 C-224.77320313 119.0421949 -231.27294341 125.4163015 -237.72973633 131.89624023 C-239.51596545 133.68785325 -241.30751222 135.4740243 -243.09960938 137.25976562 C-248.36435758 142.52145643 -253.56862269 147.78063012 -258.39868164 153.45043945 C-260.58908803 156.0174802 -262.89921387 158.46436929 -265.19921875 160.93359375 C-269.48852578 165.57666564 -273.55100494 170.35550992 -277.515625 175.28125 C-279.59497908 177.8391018 -281.71446707 180.35215593 -283.8581543 182.85571289 C-289.224888 189.12794872 -294.33912475 195.55985273 -299.31933594 202.14355469 C-301.05096227 204.41905327 -302.80050213 206.68022532 -304.55078125 208.94140625 C-312.27085307 218.94561703 -319.67854529 229.07970976 -326.734375 239.5625 C-329.2595916 243.31167769 -331.85682119 247.00237603 -334.48730469 250.67822266 C-340.16859037 258.6178285 -345.44083981 266.73102699 -350.54248047 275.05224609 C-351.84685175 277.15762557 -353.17656074 279.24465774 -354.515625 281.328125 C-366.75124424 300.38855241 -378.06502559 320.01906461 -389.07421875 339.80859375 C-389.68177002 340.89978516 -390.28932129 341.99097656 -390.9152832 343.11523438 C-394.37627905 349.37664527 -397.68599975 355.69168099 -400.82421875 362.12109375 C-399.10847766 363.83683484 -396.8109292 363.3886647 -394.46124268 363.50468445 C-393.29344741 363.56468722 -392.12565214 363.62469 -390.92246914 363.68651104 C-389.62579846 363.74830956 -388.32912779 363.81010809 -386.99316406 363.8737793 C-385.61788638 363.94271656 -384.24263026 364.01208533 -382.86739445 364.08185291 C-379.87928269 364.23255217 -376.89104316 364.38027293 -373.90267372 364.52577209 C-369.09772775 364.75979584 -364.29313271 365.00053869 -359.48857117 365.24230957 C-352.60714958 365.58804658 -345.72559967 365.93111232 -338.84396362 366.27255249 C-320.88474443 367.16426039 -302.92669435 368.07912112 -284.96875 368.99609375 C-284.07643716 369.0416225 -283.18412432 369.08715126 -282.2647717 369.13405967 C-235.76742574 371.50702122 -189.28381283 374.08995094 -142.82421875 377.12109375 C-142.08112206 377.16957458 -141.33802536 377.21805542 -140.57241058 377.26800537 C-107.97671997 379.40180308 -75.43212083 382.14321783 -42.8828125 384.87890625 C-42.14557733 384.94085277 -41.40834215 385.00279929 -40.64876652 385.06662297 C-24.80090412 386.39832802 -8.9534104 387.73415798 6.89262867 389.08740234 C11.91342316 389.51609839 16.93440066 389.94263244 21.95542783 390.36859393 C25.33993759 390.6558914 28.72432537 390.94449458 32.10846138 391.23616409 C35.8405316 391.55734104 39.57292825 391.874438 43.30541992 392.19067383 C44.94204558 392.3331947 44.94204558 392.3331947 46.61173439 392.47859478 C52.15749069 392.94417905 57.61054031 393.22042325 63.17578125 393.12109375 C63.18791153 391.60301117 63.18791153 391.60301117 63.20028687 390.05426025 C64.00527578 290.55803404 64.00527578 290.55803404 66.17578125 251.12109375 C66.23080811 250.10194885 66.28583496 249.08280396 66.3425293 248.03277588 C67.86075356 220.14542193 70.0441411 192.323533 72.4375 164.5 C72.64205247 162.11340157 72.84656583 159.72679979 73.05104065 157.3401947 C73.97511534 146.57273934 74.90692492 135.80616199 75.86966419 125.04208851 C83.50231829 74.08002395 83.50231829 74.08002395 70.26953125 26.5078125 C59.00986289 13.12704464 42.40641265 7.81302049 25.37060547 6.29296875 C-43.84808513 0.87250622 -107.67712517 26.47696959 -162.82421875 67.12109375 Z " fill="#000000" transform="translate(925.82421875,531.87890625)"/>
</svg>
